<?xml version="1.0" standalone="no"?>
<!DOCTYPE svg PUBLIC "-//W3C//DTD SVG 20010904//EN"
 "http://www.w3.org/TR/2001/REC-SVG-20010904/DTD/svg10.dtd">
<svg version="1.0" xmlns="http://www.w3.org/2000/svg"
 width="416.000000pt" height="416.000000pt" viewBox="0 0 416.000000 416.000000"
 preserveAspectRatio="xMidYMid meet">
<metadata>
Created by potrace 1.11, written by Peter Selinger 2001-2013
</metadata>
<g transform="translate(0.000000,416.000000) scale(0.100000,-0.100000)"
fill="#000000" stroke="none">
<path d="M2927 4124 c-1 -1 -31 -5 -67 -8 -36 -4 -76 -9 -90 -11 -14 -3 -41
-7 -60 -10 -176 -27 -401 -93 -625 -183 -150 -60 -205 -73 -331 -77 -45 -1
-106 1 -135 6 -30 5 -70 11 -89 14 -19 3 -60 10 -90 15 -30 5 -68 12 -85 15
-16 2 -41 7 -55 10 -31 6 -183 19 -230 19 -529 -3 -941 -371 -1047 -934 -17
-92 -23 -372 -11 -495 64 -617 387 -1327 945 -2072 226 -303 283 -357 390
-370 156 -18 246 70 246 240 -1 112 -11 155 -141 592 -136 458 -216 749 -236
865 -3 19 -8 46 -11 60 -3 14 -10 57 -16 97 -5 39 -11 80 -13 90 -8 40 -20
223 -20 308 0 264 25 363 117 464 63 69 155 120 308 170 36 12 75 28 85 36 17
12 17 15 4 29 -40 41 -258 46 -357 8 -156 -59 -280 -185 -347 -352 -24 -58
-55 -165 -62 -210 -3 -19 -7 -41 -10 -49 -12 -35 -19 -172 -19 -356 1 -214 4
-257 35 -434 11 -63 18 -116 16 -118 -4 -5 -88 176 -139 302 -57 139 -100 269
-131 393 -28 111 -34 146 -52 292 -4 37 -4 229 0 270 25 240 95 378 240 472
127 82 251 97 521 63 110 -14 199 -19 335 -19 235 1 366 33 635 156 135 62
287 116 390 139 33 7 62 13 65 14 3 1 32 5 65 9 33 5 69 10 80 12 22 4 151 14
254 19 163 7 320 -84 395 -232 27 -53 62 -212 81 -365 6 -45 14 -62 49 -99
210 -223 294 -550 225 -887 -44 -219 -136 -427 -294 -662 -80 -119 -85 -131
-114 -247 -17 -67 -63 -225 -101 -350 -39 -125 -79 -255 -89 -288 -56 -181
-85 -307 -74 -323 15 -24 40 -26 58 -5 29 34 272 575 390 867 180 447 331 934
371 1196 3 19 9 53 14 75 5 22 12 67 15 100 4 33 9 69 11 80 17 87 23 405 10
545 -32 355 -167 675 -363 860 -139 132 -330 217 -553 246 -49 6 -288 13 -293
8z"/>
<path d="M3020 3113 c-235 -17 -484 -116 -636 -253 -30 -28 -101 -109 -121
-139 -1 -2 -27 21 -56 52 -65 67 -146 120 -233 153 -72 27 -204 44 -204 26 0
-6 26 -29 58 -51 116 -78 191 -166 272 -316 51 -95 105 -172 130 -185 41 -22
44 -20 186 130 85 90 106 107 208 167 341 201 656 121 808 -207 78 -166 95
-403 43 -587 -35 -125 -44 -152 -75 -223 -81 -187 -200 -372 -363 -565 -149
-176 -432 -441 -519 -486 -129 -67 -386 34 -737 289 -161 117 -252 155 -235
98 13 -42 78 -107 293 -287 334 -280 467 -361 602 -363 61 -1 71 2 150 48 133
76 319 212 445 325 443 393 732 838 821 1261 18 87 25 335 11 410 -48 266
-179 485 -351 589 -59 35 -155 76 -197 85 -129 26 -219 34 -300 29z"/>
</g>
</svg>
