<?xml version="1.0" encoding="utf-8"?>
<!-- Generated by IcoMoon.io -->
<!DOCTYPE svg PUBLIC "-//W3C//DTD SVG 1.1//EN" "http://www.w3.org/Graphics/SVG/1.1/DTD/svg11.dtd">
<svg version="1.1" xmlns="http://www.w3.org/2000/svg" xmlns:xlink="http://www.w3.org/1999/xlink" width="17" height="32" viewBox="0 0 17 32">
<path d="M2.21 16l14.431-14.453c0.164-0.164 0.265-0.391 0.265-0.641 0-0.501-0.406-0.906-0.906-0.906-0.25 0-0.477 0.101-0.641 0.265l-15.094 15.094c-0.164 0.164-0.266 0.391-0.266 0.641s0.102 0.477 0.266 0.641l15.094 15.094c0.164 0.164 0.39 0.265 0.64 0.265 0 0 0 0 0 0 0.003 0 0.006 0 0.010 0 0.247 0 0.471-0.102 0.631-0.265 0.164-0.164 0.266-0.391 0.266-0.641s-0.102-0.477-0.266-0.641z"></path>
</svg>
