<svg version="1.1" xmlns="http://www.w3.org/2000/svg" width="32" height="32" viewBox="0 0 32 32">
<path fill="#007bd2" d="M17.158 16.15c0.006-0.044 0.010-0.094 0.010-0.145s-0.004-0.101-0.011-0.15l0.001 0.006 14.303-14.303c0.165-0.164 0.268-0.391 0.268-0.643s-0.102-0.479-0.268-0.643v0c-0.165-0.174-0.398-0.282-0.656-0.282s-0.491 0.108-0.656 0.281v0l-14.149 14.221-14.176-14.221c-0.165-0.165-0.392-0.266-0.643-0.266-0.502 0-0.909 0.407-0.909 0.909 0 0.251 0.102 0.478 0.266 0.643l14.312 14.303c-0.009 0.044-0.014 0.094-0.014 0.145s0.005 0.101 0.014 0.15l-0.001-0.005-14.303 14.312c-0.163 0.164-0.263 0.389-0.263 0.638s0.101 0.475 0.263 0.638v0c0.164 0.167 0.391 0.271 0.643 0.272v0c0.248-0.004 0.472-0.107 0.634-0.271l14.176-14.176 14.149 14.176c0.162 0.165 0.385 0.268 0.633 0.272h0.001c0.498-0.002 0.901-0.407 0.901-0.905 0-0.251-0.102-0.479-0.268-0.643v0z"></path>
</svg>
